<svg id="site-logo" version="1.1" xmlns="http://www.w3.org/2000/svg" x="0" y="0" viewBox="0 0 226 59" xml:space="preserve"><style>.st0{fill:#3aab47}</style><g id="ОГПО"><g id="Ui-kit" transform="translate(-45 -45)"><g id="Group-4" transform="translate(45 45)"><g id="КСЖ_RUS"><path id="Fill-2" class="st0" d="M27.2 58.3c1.3.5 2.6.7 3.9.7 1.3 0 2.7-.2 4-.7C49.6 50.2 61.5 30.2 62.3 14 61.4.8 41.1-.1 31.1 0 21.4-.1.8 1.1 0 14c.8 16.2 12.7 36.2 27.2 44.3"></path><path class="no-svg-hover" id="Fill-3" d="M31.7 46.4c6.6-7.1 11.7-12.5 18.2-19.6 2-2.2 3.4-3.3 1.5-5.6l-4-4.7-9.6-2.5H25.7L16 16.5l-4 4.8c-1.4 1.7-.1 3.7 1.4 5.3l18.3 19.8" fill="#fffffe"></path><path id="Fill-4" class="st0" d="M46.8 16.9c-2 1.4-4.6 2-7.2 2.5 1.3-.1 2-.2 3.4-.3.9-.1 1.5-.2 2.2.4l3 2.9c-.6-1.1-1.2-2.1-1.8-3.2-.4-.7-.4-.7 0-1.3 0-.3.2-.7.4-1"></path><path id="Fill-5" class="st0" d="M15.6 24.7c1.5.3 1.8.4 3.3.7 1 .2 2.6 0 3.1-.9l1.6-3.4c-.1 2.3-1.4 5.2 1.3 5.7l4.9 1.7c-2.1-.2-4-.7-4.9-.2-1 .6-.4 1.6-.1 2.3L29 40.7c-2.7-5.1-5.1-9-8.6-12.4-1.4-1.3-3-2.2-4.8-3.6"></path><path id="Fill-6" class="st0" d="M16.9 16.9c1.8 1.3 4.4 1.9 7.2 2.5-1.4-.1-2.7-.2-4.1-.4-.9-.1-.8-.1-1.5.5l-2.9 2.9c.6-1.2 1.3-2.3 1.9-3.4.3-.5.3-.4 0-.9l-.6-1.2"></path><path id="Fill-7" class="st0" d="M30.5 25l-.1.3V25c-.3-1.2-.5-2.5-.8-3.7-.3-1.5-.2-1.4-1.7-1.9-1.3-.4-2.6-.8-3.8-1.1 4.2.7 8.5.7 12.7 0-5.9 1.7-5 .8-6.3 6.7"></path><path id="Fill-8" class="st0" d="M48.1 24.7c-1.5.3-1.8.4-3.3.7-1 .2-2.6 0-3.1-.9l-1.6-3.4c.1 2.3 1.4 5.2-1.3 5.7L34 28.5c2.1-.2 4-.7 4.9-.2 1 .6.4 1.6.1 2.3l-4.3 10.2c2.7-5.1 5.1-9 8.6-12.4 1.4-1.4 3-2.3 4.8-3.7"></path></g><path id="Fill-1" class="st0" d="M125.1 31c0 1 .2 2.1 1 2.5.2.1.5.3.8.4.7.3 1.4.5 2 .5 1.1 0 2.3-.5 3.1-1.6 1.1-1.4 2-3.5 2-6.3 0-2.5-.7-4.5-1.8-5.8-.9-1.1-2.2-1.5-3.6-1.5-.6 0-1.3.1-1.8.3-.2.1-.3.2-.5.3-1 .8-1.1 1.9-1.1 3.1-.1 2.7-.1 5.4-.1 8.1zm0 9.5c0 1.2-.2 2.5 1.2 2.8.3.1.8.1 1.1.2.3.1.4.4.4.7 0 .3-.2.6-.5.7-.2.1-.5.1-.7.1-.9.1-1.8.3-2.6.5-1.2.3-2.4.5-3.6.8-.4.1-.8 0-.8-.4v-1.3-23.1c0-1.2.2-2.5-1.2-2.8-.3-.1-.8-.1-1.1-.2-.3-.1-.4-.4-.4-.7 0-.3.2-.6.5-.7.2-.1.5-.1.7-.1.9-.1 1.8-.3 2.6-.5 1.2-.3 2.4-.5 3.6-.8.4-.1.8 0 .8.4v1.3c0 .5.4.7.8.5.9-.5 1.7-1.1 2.5-1.6 2.9-1.5 6.5-.4 8.6 2.1 1.3 1.7 1.9 3.7 2.1 6.1.7 7-4.5 13.7-12.7 12-1.2-.2-1.4.3-1.4.8.1 1.1.1 2.2.1 3.2zM83.3 7h6.4c1.3 0 2.4.2 3.2.2.3 0 .5.3.5.5l.3 4.4c0 .2 0 .4-.1.7-.2.3-.5.6-.9.6s-.7-.2-.9-.5c-.1-.1-.1-.2-.1-.3-.4-1.1-.8-1.9-1.2-2.4-.7-.7-2.3-1.5-4.9-1.5h-1.8c-.9 0-1.4.1-1.6.2-.2.1-.2.6-.2 1.4v7.3c0 .4 0 .7.1 1.1.2.5.6 1 1.2 1.1.3.1.6.1.9.1h1.1c1.9 0 3.1-.2 3.5-.5.3-.3.6-1 .8-2.3 0-.1 0-.3.1-.4.1-.3.4-.6.8-.6s.7.2.8.6v8.7c.1.4-.3.6-.6.6s-.6-.2-.8-.5c-.1-.2-.1-.3-.1-.5-.2-1.2-.5-1.9-.8-2.2-.4-.4-1.6-.6-3.5-.6h-1.2c-.3 0-.6 0-.9.1-.5.2-.9.6-1.1 1.1-.1.3-.1.6-.1.9l-.2 5.2c0 1.7.1 2.9.2 3.5.1.6.4 1 .9 1.2.4.2.8.2 1.3.3.5 0 1.4.1 2.5.1 3.6-.1 5.2-.9 6.6-4.6.2-.3.3-.9 1.1-1 .5 0 .9.3 1 .8.1.3 0 .5-.1.8-.1.6-.2 1.3-.4 2-.3 1.4-.5 2.4-.7 3.1-.1.2-.3.3-.5.4-.7.2-1.6.3-2.8.3-2.1 0-4.7.1-7.6.1-3.1 0-6 .1-8.2 0-1.2 0-2.2-.2-2.9-.3-.1 0-.1 0-.2-.1-.3-.1-.4-.4-.4-.7 0-.3.2-.6.5-.7.2-.1.4 0 .6-.1 1.2-.1 2-.4 2.4-.8.4-.6.7-2.1.7-4.6l.1-15c0-2.4-.2-4-.6-4.6-.3-.5-1-.8-2.1-.9-.1 0-.3 0-.5-.1-.3-.1-.5-.4-.5-.7 0-.3.2-.6.5-.7h.1c.7-.1 1.5-.2 2.4-.2h7.9zm111.1 10.3c0-.1 0-.4.1-.5l.3-.3c.1-.1.4-.1.5-.1.2 0 .4 0 .5-.1 1.1-.1 2.1-.3 2.8-.4.2 0 .6-.1.8-.1.2 0 .4.1.5.3.1.1 0 .3 0 .4V32c0 1.2.3 2.5 1.7 2.6h.1c.3.1.6.3.6.7 0 .4-.3.8-.7.7h-4.5-.1c-.7 0-1.4-.3-1.8-.7-.5-.4-.7-.9-1-1.1-.4-.2-1.1.1-2 .7-.8.5-1.9 1-2.5 1.2-.6.2-1.3.3-2 .3-1.9 0-3.3-.6-4.3-1.7s-1.5-2.6-1.5-4.4V20c0-.8-.1-1.4-.2-1.6-.2-.3-.6-.4-1.2-.5-.2 0-.6 0-.8-.2-.3-.1-.4-.4-.4-.7 0-.3.2-.5.4-.7.2-.1.4-.1.6-.1.9 0 1.9-.1 2.9-.2 1.1-.1 2.1-.3 2.8-.4.2 0 .6-.1.8-.1.2 0 .4.1.5.3.1.1 0 .3 0 .4V29c0 1.3.3 2.2.8 2.8.6.6 1.3.9 2.2.9.8 0 1.6-.2 2.4-.7 1-.5 1.4-1.5 1.5-2.4.2-3.7.2-8 .2-12.3zm-88.7-1.5c2.7-.2 5.4.1 7.9 1.6 1.2.7 1.7 1.8 1.7 3.4 0 1.3-.5 2.3-1.5 3.1-.4.3-1 .6-1.7.9-.4.1-.3.3-.4.3 0 0 0 .2.3.3 1.1.3 2 .7 2.7 1.3 1.2.9 1.7 2.1 1.7 3.6 0 2.1-1 3.7-3 4.6-1.8.8-4.3 1.3-7.5 1.3h-6.7c-.3 0-.6-.2-.6-.6V21.1c0-1.9 0-2.1-1.4-2.7-.3-.1-.4-.3-.5-.6 0-.3.2-.6.4-.7.2-.1.4-.1.7-.2 2.7-.5 5.4-.9 7.9-1.1zm-1.6 3.3v4.7c.1.7.6.8.8.8h.3c1.2 0 2.3-.2 3.1-.8.8-.6 1.2-1.4 1.2-2.5s-.3-2-1-2.6c-.7-.6-1.6-.8-2.7-.8-.8 0-1.3.1-1.5.2-.1.1-.2.4-.2 1zm1.3 7.3h-.4c-.7.1-.9.6-.9.9v4.2c0 1.2.2 2 .6 2.5.3.4.8.5 1.5.5 1.2 0 2.2-.4 3-1.1.8-.7 1.2-1.8 1.2-3.1.1-2.7-1.6-3.9-5-3.9zm46.6 3.5v-3.4c0-.5-.4-.9-.9-.9-.2 0-.3 0-.5.1l-1.7 1c-1.6.9-2.5 2.4-2.4 3.9 0 1.5 1.2 2.7 2.7 2.7 1.2 0 2.2-.7 2.6-1.8.3-.6.2-1.1.2-1.6zm5.4-8.6v10.1c0 .9.1 1.6.3 2 .2.3.4.5.7.6.5.1.8.5.8 1 0 .4-.2.7-.5.8-.8.5-1.8.8-2.8.8-.9 0-1.7-.2-2.3-.6-.7-.5-1.1-1.3-2.1-1.3-.9 0-1.4.7-2.1 1.2-.7.5-1.4.8-2.5.8-1.7 0-3-.6-4.1-1.7-1.1-1.2-1.6-2.4-1.6-3.8 0-2.3 1.2-3.9 3.5-4.8 1.3-.5 2.6-1 3.9-1.6 1-.4 1.8-.8 2.4-1.1.6-.3 1-.9 1-1.5v-.7c0-2.1-.6-3.8-2.4-3.9-3.2-.1-3.5 2.6-3.9 4.7-.1.8-.8 1.2-1.5 1.2-.5 0-1.1-.2-1.6-.6-.7-.5-.7-1-.7-1.5 0-3.2 3.5-5.7 7.7-5.7 4.8 0 7.8 1.1 7.8 5.6zM175 17c1.4.9 2.1 2.2 2.1 3.8 0 .5-.1 1-.4 1.5-.3.4-.6.8-.9 1-.3.3-.8.6-1.5.8-.3.1-.6.3-1 .4-.5.1-.5.5-.1.7 1.3.3 2.3.8 3.2 1.4 1.1.9 1.7 2.1 1.7 3.6 0 2-.9 3.5-2.7 4.6-1.8 1.1-4.2 1.7-7 1.7a16 16 0 0 1-3.9-.5c-1.2-.4-2.1-.8-2.8-1.4-.4-.4-.7-.7-.9-1.2-.2-.4-.3-.8-.3-1.3s.2-1.1.7-1.6c.5-.5 1-.7 1.6-.7.9 0 1.7.7 2.3 2 .4.9.9 1.7 1.6 2.2.6.5 1.3.8 2 .8.9 0 1.7-.4 2.3-1.2.6-.8 1-1.8 1-2.9 0-1.3-.3-2.3-.8-3.1-1.6-2.5-2.2-.1-4-1.3-.3-.2-.5-.6-.5-1.1 0-.5.2-.8.5-1.1 1.6-1 2.3.6 3.4-.7.4-.5.7-1.3.7-2.3 0-1.1-.3-1.9-.9-2.6-1.2-1.3-2.8-1.1-4.3-.2-1.2.8-2 2.1-2.7 3.8-.1.3-.4.5-.8.5s-.8-.3-.9-.7v-.3c0-.5.1-1 .2-1.6.1-1.1.3-1.9.4-2.3 0-.1.1-.3.2-.3.5-.4 1.3-.8 2.2-1.2 3.1-1 7.9-.9 10.3.8zm41.2 2.2V25c0 .7-.6.8-.8.8h-.4c-1.2 0-2.3-.2-3.1-.8-1.2-.8-1.6-2.1-1.6-3.3.1-2.4 1.3-3.8 4-3.8.8 0 1.4.2 1.6.3.2.1.3.5.3 1zm-5.4-2.9c-2.9.3-6.1 1.8-6.1 5.2 0 3 2.2 4.3 4.7 5.1.3.1.8.3.4 1.2-.9 1.7-1.3 2.3-2.5 4.1-.7 1.1-2 2.3-2.9 2.8-.3.1-.5.1-.7.2-.2.1-.4.4-.4.7 0 .4.4.8.8.7h4.3c1.3 0 1.8-.7 2.5-1.7l3.8-6.3c.4-.7 1.2-.5 1.2.4v7c0 .3.2.6.6.6h4.4c.3 0 .5-.2.5-.6V20.2c0-1.9.1-2.2 1.4-2.7.3-.1.4-.3.5-.6 0-.3-.2-.6-.4-.7-.1-.1-.4-.1-.5-.1-3.3-.1-8.5-.2-11.6.2z"></path><path id="Fill-9" class="st0" d="M74 54.5h1v-2.4h.7l1.3 2.4h1.1l-1.6-2.8 1.6-2.6H77l-1.3 2.2H75v-2.2h-1v5.4zm4.5-2.7c0 1.6 1.2 2.8 2.8 2.8 1.6 0 2.8-1.2 2.8-2.8 0-1.6-1.2-2.8-2.8-2.8-1.6 0-2.8 1.2-2.8 2.8zm1 0c0-1.1.8-1.9 1.8-1.9s1.8.8 1.8 1.9c0 1.1-.8 1.9-1.8 1.9s-1.8-.8-1.8-1.9zm5.4 2.7h1l.2-3v-.9s.2.5.3.9l.9 2.1h.9l.9-2.1c.1-.3.3-.8.3-.8v.8l.2 3h1l-.4-5.4h-1.1L88 51.8c-.1.3-.3.8-.3.8s-.1-.5-.3-.8l-1.1-2.7h-1.1l-.3 5.4zm6.9 0h1v-4.6h2.5v4.6h1v-5.4h-4.4v5.4zm5.2 0h1l.5-1.4h1.9l.5 1.4h1l-1.9-5.4h-1.1L97 54.5zm1.7-2.2l.5-1.5c.1-.3.2-.8.2-.8s.1.5.2.8l.5 1.5h-1.4zm3.9 2.2h1v-2.3h2.5v2.3h1v-5.4h-1v2.3h-2.5v-2.3h-1v5.4zm5.8 0h1l2.1-3.1c.2-.3.5-.8.5-.8s-.1.5-.1.8v3.1h1v-5.4h-1l-2.1 3.1c-.2.3-.5.8-.5.8s.1-.5.1-.8v-3.1h-1v5.4zm5.3 0h1.1l1.2-2h.8v2h1v-5.4H116c-.5 0-.8 0-1 .1-.5.2-.9.7-.9 1.5 0 .7.3 1.3 1 1.6 0 0-.1.1-.2.3l-1.2 1.9zm2.3-2.8c-.5 0-.9-.3-.9-.9 0-.3.1-.6.3-.7.1-.1.3-.1.7-.1h.7v1.7h-.8zm5.1 2.8h1v-4.6h2.5v4.6h1v-5.4h-4.4v5.4zm5.4-2.7c0 1.6 1.2 2.8 2.8 2.8 1.6 0 2.8-1.2 2.8-2.8 0-1.6-1.2-2.8-2.8-2.8-1.5 0-2.8 1.2-2.8 2.8zm1.1 0c0-1.1.8-1.9 1.8-1.9s1.8.8 1.8 1.9c0 1.1-.8 1.9-1.8 1.9s-1.8-.8-1.8-1.9zm7.2 0c0 1.6 1.1 2.8 2.8 2.8 1 0 1.7-.4 2.2-.9l-.5-.7c-.4.4-1 .7-1.6.7-1.2 0-1.8-.9-1.8-1.9 0-1 .6-1.9 1.8-1.9.5 0 1.1.2 1.5.6l.5-.7c-.5-.5-1.3-.7-2-.7-1.7-.1-2.9 1.1-2.9 2.7zm7.1 2.7h1v-4.6h1.8V49h-4.6v.9h1.8v4.6zm3.6 0h1v-1.9h1.1c1 0 1.7-.7 1.7-1.8s-.7-1.8-1.7-1.8h-2.1v5.5zm1-2.7v-1.9h1c.6 0 .9.4.9.9 0 .6-.3.9-.9.9h-1zm2.9 2.7h1l.5-1.4h1.9l.5 1.4h1l-1.9-5.4h-1.1l-1.9 5.4zm1.7-2.2l.5-1.5c.1-.3.2-.8.2-.8s.1.5.2.8l.5 1.5h-1.4zm3.3 2.2h1.1l.9-1.5c.2-.3.3-.6.3-.6s.2.3.3.6l.9 1.5h1.1l-1.7-2.8 1.6-2.7h-1.1l-.8 1.3c-.2.3-.3.7-.3.7s-.2-.3-.3-.7l-.8-1.3h-1.1l1.6 2.7-1.7 2.8zm4.9-2.7c0 1.6 1.2 2.8 2.8 2.8 1.6 0 2.8-1.2 2.8-2.8 0-1.6-1.2-2.8-2.8-2.8-1.6 0-2.8 1.2-2.8 2.8zm1 0c0-1.1.8-1.9 1.8-1.9s1.8.8 1.8 1.9c0 1.1-.8 1.9-1.8 1.9s-1.8-.8-1.8-1.9zm5.7 2.7h2c1 0 1.9-.5 1.9-1.6 0-.6-.3-1.1-.9-1.3.4-.2.7-.7.7-1.2 0-.9-.7-1.4-1.7-1.4h-2v5.5zm1-3.2v-1.4h1c.5 0 .7.3.7.7s-.2.7-.7.7h-1zm0 2.4v-1.6h1.1c.5 0 .8.3.8.8s-.3.8-.8.8H167zm3.2.8h1l.5-1.4h1.9l.5 1.4h1l-1.9-5.4h-1.1l-1.9 5.4zm1.7-2.2l.5-1.5c.1-.3.2-.8.2-.8s.1.5.2.8l.5 1.5h-1.4zm3.9 2.2h1v-2.3h2.5v2.3h1v-5.4h-1v2.3h-2.5v-2.3h-1v5.4zm5.8 0h1l2.1-3.1c.2-.3.5-.8.5-.8s-.1.5-.1.8v3.1h1v-5.4h-1l-2.1 3.1c-.2.3-.5.8-.5.8s.1-.5.1-.8v-3.1h-1v5.4zm5.9 0h1v-2.3h.9c.2 1.4 1.3 2.4 2.7 2.4 1.6 0 2.8-1.2 2.8-2.8 0-1.6-1.2-2.8-2.8-2.8-1.5 0-2.6 1-2.7 2.4h-.9v-2.3h-1v5.4zm2.8-2.7c0-1.1.8-1.9 1.7-1.9 1 0 1.8.8 1.8 1.9 0 1.1-.8 1.9-1.8 1.9-.9 0-1.7-.8-1.7-1.9zm6.9 2.7h1.1l1.2-2.4h.6v2.4h1v-2.4h.6l1.2 2.4h1.1l-1.6-2.8 1.4-2.6h-.8l-1.2 2.2h-.6v-2.2h-1v2.2h-.6l-1.2-2.2h-1.1l1.4 2.6-1.5 2.8zm7.8 0h1l2.1-3.1c.2-.3.5-.8.5-.8s-.1.5-.1.8v3.1h1v-5.4h-1l-2.1 3.1c-.2.3-.5.8-.5.8s.1-.5.1-.8v-3.1h-1v5.4zm5.3-.7c.5.5 1.2.8 1.9.8 1 0 1.9-.6 1.9-1.6 0-.6-.4-1.1-.9-1.3.4-.2.8-.6.8-1.2 0-1-.8-1.5-1.7-1.5-.5 0-1.2.1-1.8.6l.4.7c.4-.3.8-.5 1.2-.5.6 0 .8.3.8.8 0 .4-.4.8-.9.8h-.5v.8h.7c.5 0 .9.3.9.8s-.4.8-1 .8c-.5 0-1-.3-1.2-.6l-.6.6zm4.8.7h1v-2.3h2.5v2.3h1v-5.4h-1v2.3h-2.5v-2.3h-1v5.4zm5.8 0h1l2.1-3.1c.2-.3.5-.8.5-.8s-.1.5-.1.8v3.1h1v-5.4h-1l-2.1 3.1c-.2.3-.5.8-.5.8s.1-.5.1-.8v-3.1h-1v5.4z"></path></g></g></g></svg>
